<svg width="580" height="464" viewBox="0 0 580 464" xmlns="http://www.w3.org/2000/svg">
  <defs>
    <linearGradient id="bg" x1="0" y1="0" x2="1" y2="1"><stop offset="0%" stop-color="#0D1117"/><stop offset="100%" stop-color="#0F1A10"/></linearGradient>
    <linearGradient id="winnerBar" x1="0" y1="0" x2="0" y2="1"><stop offset="0%" stop-color="#A3E635"/><stop offset="100%" stop-color="#65A30D"/></linearGradient>
    <filter id="glow"><feGaussianBlur stdDeviation="5" result="b"/><feMerge><feMergeNode in="b"/><feMergeNode in="SourceGraphic"/></feMerge></filter>
  </defs>

  <rect width="580" height="464" fill="url(#bg)"/>

  <!-- Eyebrow -->
  <text x="32" y="44" fill="#8B949E" font-size="10" font-family="system-ui,sans-serif" letter-spacing="1.5">PHASE 03 — CREATIVE VELOCITY &amp; SCALE</text>

  <!-- === Three creative variant cards === -->

  <!-- Card A: variant -->
  <rect x="32" y="64" width="148" height="204" rx="12" fill="#161B22"/>
  <rect x="32" y="64" width="148" height="204" rx="12" stroke="#30363D" stroke-width="1.5"/>
  <!-- Mock ad visual (abstract) -->
  <rect x="44" y="78" width="124" height="80" rx="6" fill="#1E2430"/>
  <rect x="56" y="92" width="48" height="28" rx="4" fill="#84CC16" opacity="0.15"/>
  <rect x="56" y="92" width="48" height="28" rx="4" stroke="#84CC16" stroke-width="1" stroke-opacity="0.3"/>
  <text x="80" y="111" text-anchor="middle" fill="#84CC16" font-size="13" font-family="system-ui,sans-serif" font-weight="700" opacity="0.6">AD</text>
  <rect x="56" y="126" width="96" height="6" rx="3" fill="#30363D"/>
  <rect x="56" y="136" width="72" height="6" rx="3" fill="#30363D"/>
  <!-- Bottom -->
  <text x="106" y="180" text-anchor="middle" fill="#F0F6FC" font-size="14" font-family="system-ui,sans-serif" font-weight="700">Variant A</text>
  <rect x="56" y="190" width="100" height="22" rx="5" fill="#21262D"/>
  <text x="106" y="205" text-anchor="middle" fill="#8B949E" font-size="11" font-family="system-ui,sans-serif">CTR 1.2%</text>
  <rect x="56" y="218" width="100" height="22" rx="5" fill="#21262D"/>
  <text x="106" y="233" text-anchor="middle" fill="#8B949E" font-size="11" font-family="system-ui,sans-serif">ROAS 2.1×</text>

  <!-- Card B: variant -->
  <rect x="216" y="64" width="148" height="204" rx="12" fill="#161B22"/>
  <rect x="216" y="64" width="148" height="204" rx="12" stroke="#30363D" stroke-width="1.5"/>
  <rect x="228" y="78" width="124" height="80" rx="6" fill="#1E2430"/>
  <rect x="240" y="92" width="48" height="28" rx="4" fill="#84CC16" opacity="0.2"/>
  <rect x="240" y="92" width="48" height="28" rx="4" stroke="#84CC16" stroke-width="1" stroke-opacity="0.4"/>
  <text x="264" y="111" text-anchor="middle" fill="#84CC16" font-size="13" font-family="system-ui,sans-serif" font-weight="700" opacity="0.7">AD</text>
  <rect x="240" y="126" width="96" height="6" rx="3" fill="#30363D"/>
  <rect x="240" y="136" width="80" height="6" rx="3" fill="#30363D"/>
  <text x="290" y="180" text-anchor="middle" fill="#F0F6FC" font-size="14" font-family="system-ui,sans-serif" font-weight="700">Variant B</text>
  <rect x="240" y="190" width="100" height="22" rx="5" fill="#21262D"/>
  <text x="290" y="205" text-anchor="middle" fill="#8B949E" font-size="11" font-family="system-ui,sans-serif">CTR 1.8%</text>
  <rect x="240" y="218" width="100" height="22" rx="5" fill="#21262D"/>
  <text x="290" y="233" text-anchor="middle" fill="#8B949E" font-size="11" font-family="system-ui,sans-serif">ROAS 3.0×</text>

  <!-- Card C: WINNER -->
  <rect x="400" y="52" width="148" height="228" rx="12" fill="#161B22"/>
  <rect x="400" y="52" width="148" height="228" rx="12" stroke="#A3E635" stroke-width="2.5" filter="url(#glow)"/>
  <!-- Winner crown -->
  <text x="474" y="48" text-anchor="middle" fill="#A3E635" font-size="18" font-family="system-ui,sans-serif">♛</text>
  <rect x="428" y="66" width="124" height="80" rx="6" fill="#1A2810"/>
  <rect x="440" y="80" width="48" height="28" rx="4" fill="#84CC16" opacity="0.4"/>
  <rect x="440" y="80" width="48" height="28" rx="4" stroke="#A3E635" stroke-width="1.5"/>
  <text x="464" y="99" text-anchor="middle" fill="#A3E635" font-size="13" font-family="system-ui,sans-serif" font-weight="700">AD</text>
  <rect x="440" y="114" width="96" height="6" rx="3" fill="#2D4A18"/>
  <rect x="440" y="124" width="72" height="6" rx="3" fill="#2D4A18"/>
  <!-- Winner badge -->
  <rect x="416" y="160" width="116" height="22" rx="5" fill="#A3E635"/>
  <text x="474" y="175" text-anchor="middle" fill="#0D1117" font-size="10" font-family="system-ui,sans-serif" font-weight="800">★ WINNER</text>
  <rect x="428" y="190" width="100" height="22" rx="5" fill="#1A2810"/>
  <rect x="428" y="190" width="100" height="22" rx="5" stroke="#A3E635" stroke-width="1" stroke-opacity="0.5"/>
  <text x="478" y="205" text-anchor="middle" fill="#A3E635" font-size="11" font-family="system-ui,sans-serif" font-weight="700">CTR 3.4%</text>
  <rect x="428" y="218" width="100" height="22" rx="5" fill="#1A2810"/>
  <rect x="428" y="218" width="100" height="22" rx="5" stroke="#A3E635" stroke-width="1" stroke-opacity="0.5"/>
  <text x="478" y="233" text-anchor="middle" fill="#A3E635" font-size="11" font-family="system-ui,sans-serif" font-weight="700">ROAS 4.3×</text>
  <text x="474" y="265" text-anchor="middle" fill="#F0F6FC" font-size="14" font-family="system-ui,sans-serif" font-weight="700">Variant C</text>

  <!-- Bottom stats bar -->
  <rect x="32" y="296" width="516" height="80" rx="12" fill="#161B22"/>
  <rect x="32" y="296" width="516" height="80" rx="12" stroke="#21262D" stroke-width="1"/>

  <!-- Velocity stat -->
  <line x1="230" y1="308" x2="230" y2="364" stroke="#21262D" stroke-width="1"/>
  <line x1="394" y1="308" x2="394" y2="364" stroke="#21262D" stroke-width="1"/>

  <text x="131" y="325" text-anchor="middle" fill="#8B949E" font-size="10" font-family="system-ui,sans-serif" letter-spacing="0.5">CREATIVE VELOCITY</text>
  <text x="131" y="356" text-anchor="middle" fill="#A3E635" font-size="26" font-family="system-ui,sans-serif" font-weight="800">3–5</text>
  <text x="131" y="369" text-anchor="middle" fill="#8B949E" font-size="10" font-family="system-ui,sans-serif">new ads / week</text>

  <text x="312" y="325" text-anchor="middle" fill="#8B949E" font-size="10" font-family="system-ui,sans-serif" letter-spacing="0.5">ROTATION CYCLE</text>
  <text x="312" y="356" text-anchor="middle" fill="#F0F6FC" font-size="26" font-family="system-ui,sans-serif" font-weight="800">10–14</text>
  <text x="312" y="369" text-anchor="middle" fill="#8B949E" font-size="10" font-family="system-ui,sans-serif">days</text>

  <text x="476" y="325" text-anchor="middle" fill="#8B949E" font-size="10" font-family="system-ui,sans-serif" letter-spacing="0.5">RESULT</text>
  <text x="476" y="350" text-anchor="middle" fill="#F0F6FC" font-size="12" font-family="system-ui,sans-serif" font-weight="700">Low CPMs</text>
  <text x="476" y="365" text-anchor="middle" fill="#F0F6FC" font-size="12" font-family="system-ui,sans-serif" font-weight="700">No Ad Fatigue</text>

  <!-- Footer -->
  <rect x="0" y="416" width="580" height="48" fill="#161B22"/>
  <line x1="0" y1="416" x2="580" y2="416" stroke="#21262D" stroke-width="1"/>
  <circle cx="32" cy="440" r="6" fill="#84CC16"/>
  <text x="46" y="445" fill="#8B949E" font-size="12" font-family="system-ui,sans-serif">Pricepally · Phase 03 — Scaling What Worked</text>
</svg>
